<?xml version="1.0" standalone="no"?><!DOCTYPE svg PUBLIC "-//W3C//DTD SVG 1.1//EN" "http://www.w3.org/Graphics/SVG/1.1/DTD/svg11.dtd"><svg t="1775052148015" class="icon" viewBox="0 0 1024 1024" version="1.1" xmlns="http://www.w3.org/2000/svg" p-id="14691" xmlns:xlink="http://www.w3.org/1999/xlink" width="200" height="200"><path d="M512.192 973.696c-14.08 0-26.24-8.32-32-21.12-5.12-12.8-1.92-27.52 7.68-37.12l26.88-26.88h-3.84c-102.4 0-192-37.12-264.32-110.08-72.96-72.96-110.08-162.56-110.08-265.6 0-69.76 17.28-133.76 51.2-190.08 9.6-16 30.72-21.12 46.72-11.52 16 9.6 21.12 30.72 11.52 46.72-27.52 45.44-40.96 97.92-40.96 154.88 0 85.76 29.44 156.8 89.6 217.6 60.16 60.16 131.2 89.6 216.32 89.6h3.84l-26.88-26.88a36.16 36.16 0 0 1-9.6-33.28c3.2-12.16 12.8-21.12 24.96-24.32 11.52-3.2 24.32 0 32.64 8.96l85.76 85.76c3.2 3.2 5.76 7.04 7.04 10.88 5.76 12.8 2.56 27.52-7.04 37.12l-85.76 85.12a32 32 0 0 1-23.68 10.24z m297.6-257.92a33.856 33.856 0 0 1-29.44-51.2c25.6-44.16 39.04-95.36 39.04-151.68 0-85.76-29.44-156.8-90.24-217.6-60.16-60.16-131.2-89.6-216.32-89.6h-3.2l26.88 26.88c13.44 13.44 14.08 35.2 0.64 48-13.44 13.44-35.2 14.08-48.64 0.64l-85.76-85.12-1.28-1.28a34.048 34.048 0 0 1 1.28-47.36l85.76-86.4c8.96-8.96 21.76-12.16 33.28-8.96 12.16 3.2 21.12 12.16 24.32 24.32 3.2 11.52 0 24.32-8.96 33.28l-28.16 27.52h3.84c103.04 0 192 37.12 264.96 110.08 72.96 72.96 109.44 161.92 109.44 265.6 0 68.48-16 131.2-48 186.24-5.76 10.24-17.28 16.64-29.44 16.64z" p-id="14692" fill="#1296db"></path></svg>